<svg id="Layer_1" data-name="Layer 1" xmlns="http://www.w3.org/2000/svg" viewBox="0 0 142.14 47"><defs><style>.cls-1{fill:#231f20;}</style></defs><path class="cls-1" d="M18.35,47.08A17.83,17.83,0,0,1,8.29,44a18.32,18.32,0,0,1-6.67-8.21,18.62,18.62,0,0,1-1-10.59,18.4,18.4,0,0,1,5-9.39,17.95,17.95,0,0,1,19.72-4,18.23,18.23,0,0,1,8.12,6.75,18.45,18.45,0,0,1-2.26,23.11A18,18,0,0,1,18.35,47.08Zm0-33.48A14.9,14.9,0,0,0,10,16.14a15.2,15.2,0,0,0-5.52,6.8,15.44,15.44,0,0,0-.86,8.76,15.25,15.25,0,0,0,4.09,7.76,14.81,14.81,0,0,0,16.31,3.3,15.1,15.1,0,0,0,6.72-5.58,15.23,15.23,0,0,0-1.88-19.1A15,15,0,0,0,18.35,13.6Z" transform="translate(-0.24 -0.08)"/><path class="cls-1" d="M103.4,47.08A17.83,17.83,0,0,1,93.34,44a18.25,18.25,0,0,1-6.67-8.21,18.49,18.49,0,0,1,3.91-20,17.94,17.94,0,0,1,19.71-4,18.2,18.2,0,0,1,8.13,6.75,18.51,18.51,0,0,1,3,10.19v1.58H88.63A15.27,15.27,0,0,0,93.47,40a14.43,14.43,0,0,0,17.65,1.69,15.28,15.28,0,0,0,5.51-5.91l2.75,1.48a18.52,18.52,0,0,1-6.66,7.14A18.2,18.2,0,0,1,103.4,47.08ZM88.65,27.17h29.62a15.49,15.49,0,0,0-4.92-9.61,15.09,15.09,0,0,0-9.95-4,14.92,14.92,0,0,0-9.91,4A15.29,15.29,0,0,0,88.65,27.17Z" transform="translate(-0.24 -0.08)"/><path class="cls-1" d="M36.85,2.79H33.72V45.54h3.13Z" transform="translate(-0.24 -0.08)"/><path class="cls-1" d="M49.44,12.16H46.31V45.54h3.13Z" transform="translate(-0.24 -0.08)"/><path class="cls-1" d="M129.84,11.18h-3.13V45.54h3.13Z" transform="translate(-0.24 -0.08)"/><path class="cls-1" d="M84,11.39H54.89v3.17H84Z" transform="translate(-0.24 -0.08)"/><path class="cls-1" d="M62.1,46.5H59v-37a9.57,9.57,0,0,1,.67-3.59,9.25,9.25,0,0,1,2-3A9.14,9.14,0,0,1,68.14.08H70V3.23h-1.9a6.08,6.08,0,0,0-4.32,1.89,6.25,6.25,0,0,0-1.75,4.42v37Z" transform="translate(-0.24 -0.08)"/><path class="cls-1" d="M76.68,46.5H73.5v-37a9.48,9.48,0,0,1,2.67-6.64A9.23,9.23,0,0,1,82.68.08H84.6V3.23H82.68a6.12,6.12,0,0,0-4.31,1.89,6.32,6.32,0,0,0-1.74,4.42v37Z" transform="translate(-0.24 -0.08)"/><path class="cls-1" d="M129.84,46.26h-3.13V24.17a13.31,13.31,0,0,1,3.75-9.39,13,13,0,0,1,9.22-4V14a9.83,9.83,0,0,0-7,3,10.1,10.1,0,0,0-2.83,7.16Z" transform="translate(-0.24 -0.08)"/><path class="cls-1" d="M139.7,47A2.71,2.71,0,1,0,137,44.32,2.69,2.69,0,0,0,139.7,47Z" transform="translate(-0.24 -0.08)"/></svg>