<?xml version="1.0" encoding="utf-8"?>
<!-- Generator: Adobe Illustrator 26.0.2, SVG Export Plug-In . SVG Version: 6.00 Build 0)  -->
<svg version="1.1" id="Layer_1" xmlns="http://www.w3.org/2000/svg" xmlns:xlink="http://www.w3.org/1999/xlink" x="0px" y="0px"
	 viewBox="0 0 180.7 91.8" style="enable-background:new 0 0 180.7 91.8;" xml:space="preserve">
<style type="text/css">
	.st0{fill:#4D4539;}
	.st1{fill:#FFFFFF;}
</style>
<rect x="-0.3" y="-0.3" class="st0" width="181" height="92"/>
<path class="st1" d="M36.8,67.8c-3.6,0-7.1-1.1-10.1-3.1c-3-2-5.3-4.9-6.7-8.2c-1.4-3.4-1.7-7-1-10.6c0.7-3.6,2.4-6.8,5-9.4
	c5.1-5.2,12.9-6.8,19.7-4c3.3,1.4,6.1,3.7,8.1,6.8c4.8,7.3,3.9,16.9-2.3,23.1C46.2,65.8,41.6,67.8,36.8,67.8z M36.8,34.3
	c-3,0-5.9,0.9-8.4,2.5c-2.5,1.7-4.4,4-5.5,6.8c-1.1,2.8-1.4,5.8-0.9,8.8c0.6,2.9,2,5.6,4.1,7.8c4.2,4.3,10.7,5.6,16.3,3.3
	c2.7-1.2,5.1-3.1,6.7-5.6c4-6,3.2-14-1.9-19.1C44.5,36,40.7,34.4,36.8,34.3z"/>
<path class="st1" d="M121.8,67.8c-3.6,0-7.1-1.1-10.1-3.1c-3-2-5.3-4.9-6.7-8.2c-2.8-6.8-1.3-14.7,3.9-20c5.1-5.2,12.9-6.8,19.7-4
	c3.3,1.4,6.1,3.7,8.1,6.8c2,3,3,6.6,3,10.2V51h-32.8c0.4,3.7,2.1,7.2,4.8,9.7c4.8,4.5,12.1,5.2,17.7,1.7c2.3-1.4,4.2-3.5,5.5-5.9
	l2.8,1.5c-1.5,2.9-3.8,5.4-6.7,7.1C128.3,66.8,125.1,67.8,121.8,67.8z M107.1,47.9h29.6c-0.4-3.7-2.2-7.1-4.9-9.6
	c-2.7-2.5-6.3-3.9-10-4c-3.7,0.1-7.2,1.5-9.9,4C109.2,40.8,107.5,44.2,107.1,47.9z"/>
<path class="st1" d="M55.3,23.5h-3.1v42.8h3.1L55.3,23.5z"/>
<path class="st1" d="M67.9,32.9h-3.1v33.4h3.1V32.9z"/>
<path class="st1" d="M148.3,31.9h-3.1v34.4h3.1V31.9z"/>
<path class="st1" d="M102.4,32.1H73.3v3.2h29.1V32.1z"/>
<path class="st1" d="M80.5,67.2h-3.1v-37c0-1.2,0.2-2.4,0.7-3.6c0.5-1.1,1.1-2.1,2-3c1.7-1.8,4-2.8,6.5-2.8h1.9v3.2h-1.9
	c-1.6,0-3.2,0.7-4.3,1.9c-1.1,1.2-1.8,2.8-1.8,4.4L80.5,67.2L80.5,67.2z"/>
<path class="st1" d="M95.1,67.2h-3.2v-37c0-2.5,0.9-4.9,2.7-6.6c1.7-1.8,4.1-2.8,6.5-2.8h1.9v3.2h-1.9c-1.6,0-3.2,0.7-4.3,1.9
	c-1.1,1.2-1.8,2.8-1.7,4.4L95.1,67.2L95.1,67.2z"/>
<path class="st1" d="M148.3,67h-3.1V44.9c0-3.5,1.3-6.9,3.8-9.4c2.4-2.5,5.7-4,9.2-4v3.2c-2.6,0-5.2,1.1-7,3
	c-1.9,1.9-2.9,4.5-2.8,7.2L148.3,67z"/>
<path class="st1" d="M158.1,67.7c1.5,0,2.7-1.2,2.7-2.7c0-1.5-1.2-2.7-2.7-2.7c-1.5,0-2.7,1.2-2.7,2.7c0,0,0,0,0,0
	C155.4,66.5,156.6,67.7,158.1,67.7C158.1,67.7,158.1,67.7,158.1,67.7z"/>
</svg>
