<?xml version="1.0" encoding="UTF-8"?>
<svg xmlns="http://www.w3.org/2000/svg" data-name="Layer 1" viewBox="0 0 42.48 44.07"><path fill="#b3b3b3" d="M22.42 14.69h-6.18V8.5a.78.78 0 0 0-1.55 0v6.19H8.51a.77.77 0 1 0 0 1.54h6.18v6.19a.78.78 0 0 0 1.55 0v-6.23h6.18a.77.77 0 1 0 0-1.54zm19.22 24.27L28.99 26.27a16.27 16.27 0 1 0-4.54 4l12.94 12.92a2.84 2.84 0 0 0 2 .85 2.89 2.89 0 0 0 2.1-.85l.15-.15a2.92 2.92 0 0 0 0-4.08zm-25.4-8a14.7 14.7 0 1 1 10.38-4.3 14.63 14.63 0 0 1-10.38 4.27zm24.3 11l-.15.15a1.38 1.38 0 0 1-1.91 0L26.34 29.94l2.06-2.07 12.15 12.18a1.38 1.38 0 0 1-.01 1.93z" style="fill: #000000;"/></svg>
