<?xml version="1.0" encoding="UTF-8"?>
<svg xmlns="http://www.w3.org/2000/svg" data-name="Layer 1" viewBox="0 0 46.39 46.39"><path fill="#b3b3b3" d="M23.19 0a23.2 23.2 0 1 0 23.2 23.19A23.19 23.19 0 0 0 23.19 0zm0 44.84a21.65 21.65 0 1 1 21.69-21.65 21.67 21.67 0 0 1-21.69 21.65zm9.25-30.89a.76.76 0 0 0-1.09 0l-8.16 8.15-8.15-8.15a.76.76 0 0 0-1.09 0 .77.77 0 0 0 0 1.09l8.15 8.15-8.15 8.16a.78.78 0 0 0 0 1.1.79.79 0 0 0 1.09 0l8.15-8.16 8.16 8.16a.75.75 0 0 0 .54.22.77.77 0 0 0 .55-.22.78.78 0 0 0 0-1.1l-8.15-8.15 8.15-8.15a.77.77 0 0 0 0-1.1z" style="fill: #000000;"/></svg>
